<svg id="svg" version="1.1" xmlns="http://www.w3.org/2000/svg" xmlns:xlink="http://www.w3.org/1999/xlink" width="400" height="400" viewBox="0, 0, 400,400"><g id="svgg"><path id="path0" d="M9.360 102.571 C 7.509 103.377,7.600 99.790,7.600 172.200 C 7.600 244.310,7.521 240.932,9.229 241.815 C 10.610 242.529,76.337 242.708,78.193 242.003 C 79.772 241.402,80.400 239.419,80.400 235.032 C 80.400 228.892,80.815 228.519,87.874 228.317 C 91.958 228.200,92.436 228.105,93.374 227.225 L 94.400 226.261 94.400 172.130 C 94.400 118.766,94.389 117.989,93.610 117.210 C 92.582 116.182,91.849 116.045,86.665 115.911 C 80.799 115.761,80.400 115.357,80.400 109.565 C 80.400 104.972,79.795 103.006,78.193 102.397 C 76.443 101.732,10.907 101.897,9.360 102.571 M110.082 102.416 C 107.904 103.297,108.000 100.079,108.000 172.200 C 108.000 244.956,107.876 241.117,110.250 242.019 C 110.939 242.281,115.802 242.390,123.504 242.316 L 135.670 242.200 136.635 241.078 L 137.600 239.955 137.600 214.965 C 137.600 186.876,137.532 187.590,140.268 186.830 C 142.235 186.284,160.903 186.266,162.857 186.809 C 165.538 187.554,165.380 185.962,165.600 214.450 L 165.800 240.378 166.711 241.289 C 168.146 242.723,192.655 242.723,194.089 241.289 L 195.000 240.378 195.000 172.200 L 195.000 104.022 194.089 103.111 L 193.178 102.200 152.089 102.122 C 127.547 102.076,110.630 102.194,110.082 102.416 M217.982 102.371 C 211.712 102.618,210.220 103.080,209.813 104.905 C 209.328 107.078,209.157 116.009,208.968 149.102 L 208.767 184.404 209.766 185.402 L 210.764 186.400 236.282 186.402 C 252.608 186.404,262.336 186.553,263.288 186.818 C 265.977 187.565,266.000 187.675,266.000 200.067 L 266.000 211.155 265.035 212.278 L 264.070 213.400 237.199 213.600 L 210.329 213.800 209.564 214.744 C 208.850 215.627,208.800 216.470,208.800 227.625 C 208.800 240.485,208.903 241.214,210.839 242.016 C 212.442 242.680,291.120 242.314,293.295 241.633 C 295.815 240.844,295.694 243.011,295.645 199.652 L 295.600 159.818 294.591 158.809 L 293.582 157.800 267.091 157.600 C 239.375 157.391,239.547 157.403,238.818 155.643 C 237.850 153.306,238.443 132.978,239.511 131.910 L 240.422 131.000 267.150 130.800 C 288.857 130.638,294.001 130.498,294.532 130.057 C 295.750 129.045,295.996 126.687,295.975 116.200 C 295.953 104.985,295.722 103.385,294.000 102.516 C 292.954 101.988,230.717 101.869,217.982 102.371 M311.208 102.514 C 309.106 103.577,309.200 100.118,309.303 172.689 L 309.400 240.378 310.311 241.289 C 311.375 242.354,334.491 242.957,336.848 241.980 C 338.600 241.254,338.591 241.389,338.800 214.509 L 339.000 188.818 340.108 187.709 L 341.217 186.600 351.777 186.476 C 358.694 186.395,362.910 186.506,363.998 186.800 C 366.889 187.578,366.800 186.682,366.800 214.965 L 366.800 239.955 367.765 241.078 L 368.731 242.200 381.554 242.200 C 394.366 242.200,394.379 242.199,395.289 241.289 L 396.200 240.378 396.200 172.200 L 396.200 104.022 395.289 103.111 C 393.855 101.677,369.346 101.677,367.911 103.111 L 367.000 104.022 366.800 129.846 L 366.600 155.670 365.478 156.635 L 364.355 157.600 352.822 157.600 C 339.818 157.600,339.888 157.616,339.190 154.600 C 338.985 153.717,338.809 142.073,338.797 128.600 C 338.773 102.840,338.819 103.473,336.926 102.465 C 335.646 101.783,312.565 101.827,311.208 102.514 M63.835 132.122 L 64.800 133.245 64.800 172.200 L 64.800 211.155 63.835 212.278 L 62.869 213.400 51.046 213.400 C 39.275 213.400,39.218 213.396,38.311 212.489 L 37.400 211.578 37.303 172.689 C 37.226 142.000,37.312 133.591,37.711 132.808 C 38.694 130.877,39.361 130.785,51.535 130.896 L 62.870 131.000 63.835 132.122 M164.489 131.911 C 165.394 132.817,165.400 132.894,165.400 144.246 L 165.400 155.669 164.278 156.635 L 163.155 157.600 151.600 157.600 L 140.045 157.600 138.922 156.635 L 137.800 155.670 137.682 145.067 C 137.553 133.563,137.780 131.992,139.682 131.210 C 141.882 130.306,163.496 130.917,164.489 131.911 M46.600 256.567 C 46.380 256.657,45.708 256.838,45.107 256.971 C 42.827 257.473,42.800 257.729,42.800 278.561 C 42.800 298.631,42.843 299.127,44.663 299.956 C 46.226 300.668,66.534 300.558,67.942 299.830 C 69.976 298.778,70.000 298.533,70.000 278.641 C 70.000 259.697,69.876 257.990,68.442 257.222 C 67.775 256.865,47.370 256.253,46.600 256.567 M76.131 256.983 C 73.978 257.920,74.000 257.699,74.000 278.604 L 74.000 298.062 75.169 299.231 L 76.338 300.400 83.193 300.400 L 90.048 300.400 92.324 298.318 C 95.000 295.870,98.899 292.191,100.226 290.862 C 101.570 289.516,101.665 288.194,101.525 272.732 L 101.400 258.863 100.446 257.848 C 98.647 255.935,93.854 256.110,92.697 258.132 C 92.341 258.754,92.143 262.721,92.000 272.111 L 91.800 285.221 89.000 287.792 C 83.689 292.669,83.601 292.455,83.598 274.700 C 83.595 258.835,83.471 257.840,81.385 256.968 C 79.690 256.260,77.782 256.265,76.131 256.983 M108.150 256.676 C 107.682 256.768,106.872 257.298,106.350 257.854 L 105.400 258.866 105.400 277.933 C 105.400 288.420,105.538 297.492,105.706 298.093 C 106.304 300.231,107.484 300.455,117.456 300.321 L 126.471 300.200 127.435 299.078 C 129.076 297.169,128.499 292.615,126.515 291.805 C 126.122 291.645,123.794 291.398,121.342 291.257 C 115.513 290.921,114.174 289.701,115.272 285.724 C 115.847 283.642,116.868 283.200,121.102 283.200 C 126.987 283.200,128.400 282.231,128.400 278.196 C 128.400 274.901,127.366 274.254,121.699 274.004 C 116.413 273.771,115.840 273.533,115.226 271.310 C 114.143 267.388,115.720 265.978,121.470 265.729 C 127.409 265.472,128.400 264.826,128.400 261.207 C 128.400 256.820,127.343 256.383,116.913 256.454 C 112.561 256.484,108.617 256.584,108.150 256.676 M134.918 256.817 C 132.323 257.620,132.400 256.952,132.400 278.520 L 132.400 298.062 133.569 299.231 C 135.173 300.835,138.924 300.943,140.678 299.435 L 141.800 298.470 141.918 292.335 C 142.073 284.247,142.563 283.200,146.200 283.200 C 149.805 283.200,150.400 284.367,150.400 291.432 C 150.400 299.088,151.109 300.400,155.246 300.400 C 159.361 300.400,160.145 298.751,159.940 290.530 L 159.800 284.905 158.100 283.062 C 156.021 280.807,156.018 280.704,157.969 278.587 C 160.854 275.457,160.949 258.770,158.091 257.251 C 157.086 256.717,136.489 256.332,134.918 256.817 M166.436 256.749 C 163.788 257.490,163.809 257.326,163.714 277.729 C 163.597 302.739,162.394 300.502,175.856 300.321 L 184.871 300.200 185.835 299.078 C 187.476 297.169,186.901 292.627,184.915 291.799 C 184.522 291.635,182.310 291.422,180.000 291.325 C 172.825 291.023,173.200 291.991,173.200 273.766 C 173.200 265.385,173.039 259.227,172.803 258.607 C 172.144 256.875,169.131 255.996,166.436 256.749 M194.010 256.809 C 190.748 257.576,190.728 257.727,190.879 280.289 L 191.000 298.378 191.911 299.289 C 192.817 300.195,192.887 300.200,204.379 300.200 L 215.936 300.200 216.968 299.230 L 218.000 298.261 218.000 278.512 L 218.000 258.764 217.084 257.848 C 215.850 256.613,198.217 255.819,194.010 256.809 M224.531 256.957 C 222.376 257.939,222.400 257.694,222.400 278.738 L 222.400 298.329 223.631 299.364 C 225.345 300.807,228.640 300.842,230.278 299.436 L 231.400 298.472 231.600 291.800 L 231.800 285.129 232.973 284.121 C 233.996 283.242,234.426 283.136,236.339 283.295 C 239.761 283.579,239.995 284.065,240.023 290.944 C 240.055 299.122,240.709 300.381,244.926 300.394 C 249.193 300.407,249.572 299.684,249.587 291.491 L 249.600 284.782 248.000 283.046 C 246.117 281.004,245.996 279.975,247.500 278.795 C 249.479 277.244,249.571 276.765,249.586 267.926 C 249.600 259.486,249.388 257.940,248.119 257.268 C 246.794 256.565,225.993 256.292,224.531 256.957 M256.072 256.855 C 253.630 257.558,253.600 257.818,253.600 278.400 C 253.600 302.741,252.345 300.504,265.893 300.321 L 274.826 300.200 276.540 298.400 C 277.483 297.410,278.801 296.114,279.470 295.520 C 281.103 294.069,281.200 293.122,281.200 278.600 C 281.200 262.709,281.341 263.511,277.938 259.992 C 276.274 258.271,274.668 256.992,273.892 256.769 C 272.217 256.289,257.796 256.358,256.072 256.855 M59.418 266.982 L 60.400 267.964 60.400 278.600 L 60.400 289.236 59.418 290.218 C 58.033 291.603,54.924 291.612,53.322 290.235 L 52.200 289.271 52.077 279.735 C 51.942 269.311,52.063 267.937,53.222 266.778 C 54.439 265.561,58.118 265.682,59.418 266.982 M149.418 266.982 C 150.784 268.347,150.792 271.100,149.435 272.678 C 147.985 274.363,144.391 274.335,142.922 272.627 C 139.503 268.652,145.702 263.266,149.418 266.982 M207.630 267.032 C 208.648 268.114,209.337 282.626,208.603 287.522 C 207.890 292.271,201.456 292.802,200.390 288.200 C 199.917 286.158,199.904 271.094,200.374 269.071 C 201.129 265.819,205.370 264.627,207.630 267.032 M239.018 266.982 C 240.918 268.881,240.134 272.830,237.698 273.634 C 233.667 274.964,230.696 272.151,231.990 268.229 C 232.813 265.736,237.025 264.988,239.018 266.982 M270.456 266.764 C 271.547 267.647,272.177 286.842,271.193 289.218 C 270.357 291.234,266.237 291.967,264.344 290.436 L 263.400 289.672 263.282 278.836 L 263.163 268.000 264.163 267.000 C 265.465 265.699,268.977 265.567,270.456 266.764 M14.000 269.884 C 11.096 270.951,11.438 272.269,15.718 276.513 C 20.341 281.098,23.600 284.687,23.600 285.195 C 23.600 285.408,20.990 288.240,17.800 291.489 C 9.985 299.448,10.039 300.400,18.299 300.400 L 22.820 300.400 25.510 297.931 C 28.229 295.436,31.839 291.995,33.109 290.689 C 33.489 290.297,34.655 289.109,35.700 288.048 C 38.348 285.361,38.259 284.766,34.672 281.151 C 28.617 275.048,23.516 270.348,22.549 269.981 C 21.495 269.580,15.026 269.507,14.000 269.884 " stroke="none" fill="#f9f9f9" fill-rule="evenodd"></path><path id="path1" d="M0.000 200.000 L 0.000 400.000 200.000 400.000 L 400.000 400.000 400.000 200.000 L 400.000 0.000 200.000 0.000 L 0.000 0.000 0.000 200.000 M78.193 102.397 C 79.795 103.006,80.400 104.972,80.400 109.565 C 80.400 115.357,80.799 115.761,86.665 115.911 C 91.849 116.045,92.582 116.182,93.610 117.210 C 94.389 117.989,94.400 118.766,94.400 172.130 L 94.400 226.261 93.374 227.225 C 92.436 228.105,91.958 228.200,87.874 228.317 C 80.815 228.519,80.400 228.892,80.400 235.032 C 80.400 239.419,79.772 241.402,78.193 242.003 C 76.337 242.708,10.610 242.529,9.229 241.815 C 7.521 240.932,7.600 244.310,7.600 172.200 C 7.600 99.790,7.509 103.377,9.360 102.571 C 10.907 101.897,76.443 101.732,78.193 102.397 M194.089 103.111 L 195.000 104.022 195.000 172.200 L 195.000 240.378 194.089 241.289 C 192.655 242.723,168.146 242.723,166.711 241.289 L 165.800 240.378 165.600 214.450 C 165.380 185.962,165.538 187.554,162.857 186.809 C 160.903 186.266,142.235 186.284,140.268 186.830 C 137.532 187.590,137.600 186.876,137.600 214.965 L 137.600 239.955 136.635 241.078 L 135.670 242.200 123.504 242.316 C 110.066 242.445,109.478 242.362,108.581 240.215 C 107.705 238.119,107.706 106.278,108.582 104.181 C 109.501 101.981,108.255 102.040,152.089 102.122 L 193.178 102.200 194.089 103.111 M294.000 102.516 C 295.722 103.385,295.953 104.985,295.975 116.200 C 295.996 126.687,295.750 129.045,294.532 130.057 C 294.001 130.498,288.857 130.638,267.150 130.800 L 240.422 131.000 239.511 131.910 C 238.443 132.978,237.850 153.306,238.818 155.643 C 239.547 157.403,239.375 157.391,267.091 157.600 L 293.582 157.800 294.591 158.809 L 295.600 159.818 295.645 199.652 C 295.694 243.011,295.815 240.844,293.295 241.633 C 291.120 242.314,212.442 242.680,210.839 242.016 C 208.903 241.214,208.800 240.485,208.800 227.625 C 208.800 216.470,208.850 215.627,209.564 214.744 L 210.329 213.800 237.199 213.600 L 264.070 213.400 265.035 212.278 L 266.000 211.155 266.000 200.067 C 266.000 187.675,265.977 187.565,263.288 186.818 C 262.336 186.553,252.608 186.404,236.282 186.402 L 210.764 186.400 209.766 185.402 L 208.767 184.404 208.968 149.102 C 209.221 104.750,209.232 104.522,211.088 103.305 C 212.991 102.057,291.608 101.309,294.000 102.516 M336.926 102.465 C 338.819 103.473,338.773 102.840,338.797 128.600 C 338.809 142.073,338.985 153.717,339.190 154.600 C 339.888 157.616,339.818 157.600,352.822 157.600 L 364.355 157.600 365.478 156.635 L 366.600 155.670 366.800 129.846 L 367.000 104.022 367.911 103.111 C 369.346 101.677,393.855 101.677,395.289 103.111 L 396.200 104.022 396.200 172.200 L 396.200 240.378 395.289 241.289 C 394.379 242.199,394.366 242.200,381.554 242.200 L 368.731 242.200 367.765 241.078 L 366.800 239.955 366.800 214.965 C 366.800 186.682,366.889 187.578,363.998 186.800 C 362.910 186.506,358.694 186.395,351.777 186.476 L 341.217 186.600 340.108 187.709 L 339.000 188.818 338.800 214.509 C 338.591 241.389,338.600 241.254,336.848 241.980 C 334.491 242.957,311.375 242.354,310.311 241.289 L 309.400 240.378 309.303 172.689 C 309.200 100.118,309.106 103.577,311.208 102.514 C 312.565 101.827,335.646 101.783,336.926 102.465 M39.208 131.304 C 37.136 132.373,37.198 131.011,37.303 172.689 L 37.400 211.578 38.311 212.489 C 39.218 213.396,39.275 213.400,51.046 213.400 L 62.869 213.400 63.835 212.278 L 64.800 211.155 64.800 172.200 L 64.800 133.245 63.835 132.122 L 62.870 131.000 51.535 130.896 C 42.946 130.818,39.960 130.917,39.208 131.304 M139.682 131.210 C 137.780 131.992,137.553 133.563,137.682 145.067 L 137.800 155.670 138.922 156.635 L 140.045 157.600 151.600 157.600 L 163.155 157.600 164.278 156.635 L 165.400 155.669 165.400 144.246 C 165.400 129.395,167.028 131.025,152.089 130.916 C 145.591 130.869,140.201 130.997,139.682 131.210 M68.442 257.222 C 69.876 257.990,70.000 259.697,70.000 278.641 C 70.000 298.533,69.976 298.778,67.942 299.830 C 66.534 300.558,46.226 300.668,44.663 299.956 C 42.843 299.127,42.800 298.631,42.800 278.561 C 42.800 257.729,42.827 257.473,45.107 256.971 C 45.708 256.838,46.380 256.657,46.600 256.567 C 47.370 256.253,67.775 256.865,68.442 257.222 M81.385 256.968 C 83.471 257.840,83.595 258.835,83.598 274.700 C 83.601 292.455,83.689 292.669,89.000 287.792 L 91.800 285.221 92.000 272.111 C 92.143 262.721,92.341 258.754,92.697 258.132 C 93.854 256.110,98.647 255.935,100.446 257.848 L 101.400 258.863 101.525 272.732 C 101.665 288.194,101.570 289.516,100.226 290.862 C 98.899 292.191,95.000 295.870,92.324 298.318 L 90.048 300.400 83.193 300.400 L 76.338 300.400 75.169 299.231 L 74.000 298.062 74.000 278.604 C 74.000 265.451,74.140 258.886,74.431 258.341 C 75.360 256.607,78.865 255.915,81.385 256.968 M126.215 256.981 C 127.773 257.631,128.400 258.845,128.400 261.207 C 128.400 264.826,127.409 265.472,121.470 265.729 C 115.720 265.978,114.143 267.388,115.226 271.310 C 115.840 273.533,116.413 273.771,121.699 274.004 C 127.366 274.254,128.400 274.901,128.400 278.196 C 128.400 282.231,126.987 283.200,121.102 283.200 C 116.868 283.200,115.847 283.642,115.272 285.724 C 114.174 289.701,115.513 290.921,121.342 291.257 C 123.794 291.398,126.122 291.645,126.515 291.805 C 128.499 292.615,129.076 297.169,127.435 299.078 L 126.471 300.200 117.456 300.321 C 107.484 300.455,106.304 300.231,105.706 298.093 C 105.538 297.492,105.400 288.420,105.400 277.933 L 105.400 258.866 106.350 257.854 C 107.593 256.530,107.685 256.518,116.913 256.454 C 123.023 256.412,125.142 256.532,126.215 256.981 M158.091 257.251 C 159.454 257.976,159.727 259.319,159.918 266.243 C 160.163 275.165,159.965 276.422,157.969 278.587 C 156.018 280.704,156.021 280.807,158.100 283.062 L 159.800 284.905 159.940 290.530 C 160.145 298.751,159.361 300.400,155.246 300.400 C 151.109 300.400,150.400 299.088,150.400 291.432 C 150.400 284.367,149.805 283.200,146.200 283.200 C 142.563 283.200,142.073 284.247,141.918 292.335 L 141.800 298.470 140.678 299.435 C 138.924 300.943,135.173 300.835,133.569 299.231 L 132.400 298.062 132.400 278.520 C 132.400 256.952,132.323 257.620,134.918 256.817 C 136.489 256.332,157.086 256.717,158.091 257.251 M171.015 256.981 C 173.136 257.867,173.200 258.361,173.200 273.766 C 173.200 291.991,172.825 291.023,180.000 291.325 C 182.310 291.422,184.522 291.635,184.915 291.799 C 186.901 292.627,187.476 297.169,185.835 299.078 L 184.871 300.200 175.856 300.321 C 165.488 300.460,164.723 300.291,164.028 297.697 C 163.149 294.412,163.686 259.411,164.636 258.139 C 165.922 256.417,168.532 255.943,171.015 256.981 M209.420 256.666 C 215.736 256.915,216.227 256.991,217.084 257.848 L 218.000 258.764 218.000 278.512 L 218.000 298.261 216.968 299.230 L 215.936 300.200 204.379 300.200 C 192.887 300.200,192.817 300.195,191.911 299.289 L 191.000 298.378 190.879 280.289 C 190.812 270.340,190.867 261.443,191.001 260.517 C 191.595 256.402,193.361 256.033,209.420 256.666 M248.119 257.268 C 249.388 257.940,249.600 259.486,249.586 267.926 C 249.571 276.765,249.479 277.244,247.500 278.795 C 245.996 279.975,246.117 281.004,248.000 283.046 L 249.600 284.782 249.587 291.491 C 249.572 299.684,249.193 300.407,244.926 300.394 C 240.709 300.381,240.055 299.122,240.023 290.944 C 239.995 284.065,239.761 283.579,236.339 283.295 C 234.426 283.136,233.996 283.242,232.973 284.121 L 231.800 285.129 231.600 291.800 L 231.400 298.472 230.278 299.436 C 228.640 300.842,225.345 300.807,223.631 299.364 L 222.400 298.329 222.400 278.738 C 222.400 257.694,222.376 257.939,224.531 256.957 C 225.993 256.292,246.794 256.565,248.119 257.268 M273.892 256.769 C 274.668 256.992,276.274 258.271,277.938 259.992 C 281.341 263.511,281.200 262.709,281.200 278.600 C 281.200 293.122,281.103 294.069,279.470 295.520 C 278.801 296.114,277.483 297.410,276.540 298.400 L 274.826 300.200 265.893 300.321 C 252.345 300.504,253.600 302.741,253.600 278.400 C 253.600 257.818,253.630 257.558,256.072 256.855 C 257.796 256.358,272.217 256.289,273.892 256.769 M53.222 266.778 C 52.063 267.937,51.942 269.311,52.077 279.735 L 52.200 289.271 53.322 290.235 C 54.924 291.612,58.033 291.603,59.418 290.218 L 60.400 289.236 60.400 278.600 L 60.400 267.964 59.418 266.982 C 58.118 265.682,54.439 265.561,53.222 266.778 M143.193 266.725 C 141.758 267.887,141.610 271.102,142.922 272.627 C 145.447 275.563,150.400 273.664,150.400 269.760 C 150.400 266.386,145.933 264.506,143.193 266.725 M201.426 266.771 C 200.061 268.280,199.320 283.585,200.390 288.200 C 201.456 292.802,207.890 292.271,208.603 287.522 C 209.337 282.626,208.648 268.114,207.630 267.032 C 206.360 265.681,202.558 265.521,201.426 266.771 M233.130 266.415 C 231.483 267.376,231.243 271.591,232.758 272.962 C 236.656 276.490,242.727 270.690,239.018 266.982 C 237.960 265.924,234.536 265.595,233.130 266.415 M264.163 267.000 L 263.163 268.000 263.282 278.836 L 263.400 289.672 264.344 290.436 C 266.237 291.967,270.357 291.234,271.193 289.218 C 272.177 286.842,271.547 267.647,270.456 266.764 C 268.977 265.567,265.465 265.699,264.163 267.000 M22.549 269.981 C 23.516 270.348,28.617 275.048,34.672 281.151 C 38.259 284.766,38.348 285.361,35.700 288.048 C 34.655 289.109,33.489 290.297,33.109 290.689 C 31.839 291.995,28.229 295.436,25.510 297.931 L 22.820 300.400 18.299 300.400 C 10.039 300.400,9.985 299.448,17.800 291.489 C 20.990 288.240,23.600 285.408,23.600 285.195 C 23.600 284.687,20.341 281.098,15.718 276.513 C 11.438 272.269,11.096 270.951,14.000 269.884 C 15.026 269.507,21.495 269.580,22.549 269.981 " stroke="none" fill="#040404" fill-rule="evenodd"></path></g></svg>